<?xml version="1.0" encoding="UTF-8" standalone="no"?>
<!-- Created with Inkscape (http://www.inkscape.org/) -->

<svg
   width="8in"
   height="8in"
   viewBox="0 0 203.2 203.2"
   version="1.1"
   id="svg1"
   inkscape:version="1.4 (86a8ad7, 2024-10-11)"
   sodipodi:docname="Logo.svg"
   xmlns:inkscape="http://www.inkscape.org/namespaces/inkscape"
   xmlns:sodipodi="http://sodipodi.sourceforge.net/DTD/sodipodi-0.dtd"
   xmlns="http://www.w3.org/2000/svg"
   xmlns:svg="http://www.w3.org/2000/svg">
  <sodipodi:namedview
     id="namedview1"
     pagecolor="#ffffff"
     bordercolor="#000000"
     borderopacity="0.25"
     inkscape:showpageshadow="2"
     inkscape:pageopacity="0.0"
     inkscape:pagecheckerboard="0"
     inkscape:deskcolor="#d1d1d1"
     inkscape:document-units="in"
     inkscape:zoom="0.72604517"
     inkscape:cx="108.80866"
     inkscape:cy="357.41578"
     inkscape:window-width="1920"
     inkscape:window-height="1017"
     inkscape:window-x="-8"
     inkscape:window-y="-8"
     inkscape:window-maximized="1"
     inkscape:current-layer="layer1"
     showborder="false"
     showgrid="true">
    <inkscape:grid
       id="grid1"
       units="in"
       originx="0"
       originy="0"
       spacingx="12.7"
       spacingy="12.7"
       empcolor="#0013e5"
       empopacity="0.59607843"
       color="#0099e5"
       opacity="0.27843137"
       empspacing="4"
       enabled="true"
       visible="true" />
  </sodipodi:namedview>
  <defs
     id="defs1">
    <rect
       x="-462.78112"
       y="231.39056"
       width="91.745464"
       height="7.3847289"
       id="rect1" />
    <rect
       x="431.10265"
       y="661.11589"
       width="250.67311"
       height="59.224965"
       id="rect22" />
    <rect
       x="-497.21424"
       y="81.262161"
       width="305.7661"
       height="218.99464"
       id="rect21" />
    <rect
       x="362.23641"
       y="690.03971"
       width="345.70852"
       height="45.451717"
       id="rect18" />
    <rect
       x="355.34979"
       y="618.41882"
       width="388.40558"
       height="61.979615"
       id="rect17" />
    <inkscape:path-effect
       effect="bspline"
       id="path-effect6"
       is_visible="true"
       lpeversion="1.3"
       weight="33.333333"
       steps="2"
       helper_size="0"
       apply_no_weight="true"
       apply_with_weight="true"
       only_selected="false"
       uniform="false" />
    <inkscape:path-effect
       effect="bspline"
       id="path-effect5"
       is_visible="true"
       lpeversion="1.3"
       weight="33.333333"
       steps="2"
       helper_size="0"
       apply_no_weight="true"
       apply_with_weight="true"
       only_selected="false"
       uniform="false" />
    <inkscape:path-effect
       effect="spiro"
       id="path-effect4"
       is_visible="true"
       lpeversion="1" />
  </defs>
  <g
     inkscape:label="Layer 1"
     inkscape:groupmode="layer"
     id="layer1">
    <path
       style="fill:#734b5e;fill-opacity:0;stroke:#734b5e;stroke-width:5.08732;stroke-dasharray:none;stroke-opacity:1"
       d="m 76.20366,101.6 v 50.8"
       id="path8-7"
       inkscape:label="P Vert" />
    <path
       style="fill:#734b5e;fill-opacity:0;stroke:#734b5e;stroke-width:5.08732;stroke-dasharray:none;stroke-opacity:1"
       d="m 46.99366,50.8 v 50.80001"
       id="path8-7-2"
       inkscape:label="B Vert" />
    <path
       style="fill:#734b5e;fill-opacity:0;stroke:#734b5e;stroke-width:4.75875;stroke-dasharray:none;stroke-opacity:1"
       d="m 15.875,12.7 h 44.45"
       id="path8-7-2-7"
       inkscape:label="J Horz"
       sodipodi:nodetypes="cc" />
    <path
       style="fill:#734b5e;fill-opacity:0;stroke:#734b5e;stroke-width:5.08;stroke-dasharray:none;stroke-opacity:1"
       d="M 37.899387,12.754601 C 38.02086,25.023312 38.14233,37.291775 35.895045,43.54773 33.64776,49.803685 29.031995,50.04662 25.812912,48.103023 22.593829,46.159426 20.771778,42.029446 18.949693,37.899387"
       id="path5"
       inkscape:path-effect="#path-effect6"
       inkscape:original-d="m 37.899387,12.754601 c 0.121473,12.268711 0.242943,24.537174 0.364418,36.806135 -4.616045,0.242949 -9.23181,0.485884 -13.847854,0.728833 -1.822122,-4.130143 -3.644172,-8.260123 -5.466258,-12.390182"
       sodipodi:nodetypes="cccc"
       inkscape:label="J Arc" />
    <path
       d="m 75.977555,106.23389 v 16.82977 a 13.212554,10.566992 0 0 0 7.921234,2.1521 13.212554,10.566992 0 0 0 13.212729,-10.56721 13.212554,10.566992 0 0 0 -13.212729,-10.56676 13.212554,10.566992 0 0 0 -7.921234,2.1521 z"
       style="fill:#734b5e;fill-opacity:0;stroke:#734b5e;stroke-width:4.26604;stroke-opacity:1"
       id="path12"
       inkscape:label="P Top Loop" />
    <path
       d="m 46.723782,55.224196 5.07e-4,19.657879 A 14.465238,10.967427 0 0 0 53.11089,76.020176 14.465238,10.967427 0 0 0 67.576259,65.052877 14.465238,10.967427 0 0 0 53.11089,54.085578 14.465238,10.967427 0 0 0 46.723782,55.224196 Z"
       style="fill:#734b5e;fill-opacity:0;stroke:#734b5e;stroke-width:4.54748;stroke-opacity:1"
       id="path13"
       inkscape:label="B Top Loop" />
    <path
       d="M 47.040876,78.068974 V 98.156445 A 18.10228,11.379123 0 0 0 55.50661,99.491916 18.10228,11.379123 0 0 0 73.60912,88.112971 18.10228,11.379123 0 0 0 55.50661,76.733503 18.10228,11.379123 0 0 0 47.040876,78.068974 Z"
       style="fill:#734b5e;fill-opacity:0;stroke:#734b5e;stroke-width:5.18176;stroke-opacity:1"
       id="path15"
       inkscape:label="B Bottom Loop" />
    <path
       style="fill:#734b5e;fill-opacity:0;stroke:#734b5e;stroke-width:5.08;stroke-dasharray:none;stroke-opacity:1"
       d="M 57.15,114.3 25.4,152.4 70.77041,190.12955 177.51998,62.520866 114.23409,9.5797813 76.2,50.8 82.722699,25.144785"
       id="path16"
       sodipodi:nodetypes="cccccc"
       inkscape:label="Full Arrow" />
    <path
       style="fill:#734b5e;fill-opacity:0;stroke:#734b5e;stroke-width:5.08;stroke-dasharray:none;stroke-opacity:1"
       d="M 75.798772,50.653986 101.30798,44.094479"
       id="path17"
       inkscape:label="Arrow End" />
    <path
       d="m 94.795769,175.91806 q -0.114706,0.35154 -0.371477,0.87618 -0.259434,0.52245 -0.617878,0.95919 -0.83054,1.01195 -1.849034,1.13426 -1.021158,0.12013 -1.990499,-0.67544 -0.924071,-0.75842 -1.01435,-1.79965 -0.09294,-1.04342 0.755083,-2.07667 0.321288,-0.39146 0.683878,-0.68663 0.359928,-0.29736 0.926565,-0.55877 l 0.929396,0.76279 -0.09398,0.11451 q -0.117121,0.0287 -0.33634,0.0894 -0.221882,0.0586 -0.403066,0.13271 -0.211983,0.0845 -0.443712,0.24196 -0.229543,0.15478 -0.419693,0.38646 -0.222935,0.27163 -0.324451,0.55823 -0.101517,0.2866 -0.08066,0.59787 0.02209,0.29891 0.18888,0.60071 0.166315,0.29694 0.488542,0.5614 0.657767,0.53986 1.292941,0.47732 0.635175,-0.0625 1.194697,-0.74428 0.04808,-0.0586 0.102247,-0.13001 0.05635,-0.0741 0.09911,-0.13704 l -0.777604,-0.63821 -0.649133,0.79092 -0.74831,-0.61416 1.501529,-1.8295 z m 2.737646,-2.87405 -1.905871,2.32216 -0.703039,-0.577 0.533294,-0.64978 -2.559168,-2.10039 -0.533295,0.64977 -0.703039,-0.577 1.905872,-2.32216 0.703039,0.577 -0.533295,0.64978 2.559169,2.1004 0.533294,-0.64978 z m 2.043078,-5.03073 q 0.585867,0.48084 0.544647,1.28044 -0.0417,0.79476 -0.741092,1.64693 -0.404342,0.49266 -0.791176,0.79022 -0.387311,0.2927 -0.782738,0.50299 l -0.950701,-0.78027 0.0918,-0.11185 q 0.513077,-0.10927 0.97018,-0.38926 0.459288,-0.28267 0.756534,-0.64484 0.0765,-0.0932 0.1851,-0.25811 0.108602,-0.16491 0.150003,-0.29137 0.04823,-0.15652 0.03753,-0.29009 -0.0085,-0.13624 -0.149659,-0.25208 -0.130488,-0.1071 -0.31549,-0.0718 -0.18548,0.0305 -0.410928,0.20202 -0.236854,0.17998 -0.487575,0.39315 -0.251198,0.20832 -0.502322,0.36767 -0.573343,0.36733 -1.031705,0.36105 -0.45884,-0.0111 -0.871609,-0.34989 -0.55391,-0.45461 -0.496239,-1.23625 0.05719,-0.78649 0.697584,-1.56676 0.321288,-0.39146 0.711061,-0.70889 0.389296,-0.32228 0.733298,-0.50792 l 0.913418,0.74967 -0.08961,0.10919 q -0.388445,0.0823 -0.802588,0.32625 -0.41462,0.2391 -0.711866,0.60127 -0.104911,0.12783 -0.19118,0.27095 -0.08675,0.13828 -0.13498,0.29479 -0.04529,0.13664 -0.02394,0.27896 0.01869,0.14014 0.122551,0.22538 0.157119,0.12895 0.340689,0.079 0.180907,-0.0521 0.52335,-0.32813 0.224493,-0.18121 0.431024,-0.34597 0.208717,-0.16742 0.473431,-0.33791 0.522873,-0.33298 0.958223,-0.33668 0.434872,-0.009 0.844978,0.32804 z m 4.013307,-3.9396 -0.62314,-0.51143 q -0.14358,0.20751 -0.30006,0.45791 -0.15915,0.24821 -0.21804,0.39598 -0.0727,0.18096 -0.0482,0.33032 0.024,0.1445 0.16516,0.26034 0.0932,0.0765 0.1649,0.1086 0.0717,0.0321 0.17742,0.0119 0.10353,-0.0175 0.2001,-0.0809 0.0939,-0.0655 0.24253,-0.24663 0.11802,-0.1438 0.17965,-0.33835 0.0638,-0.19722 0.0597,-0.38775 z m 0.46337,0.3803 q -0.005,0.12531 -0.0162,0.30758 -0.0114,0.18226 -0.0466,0.3228 -0.0519,0.1936 -0.14722,0.36943 -0.0926,0.17802 -0.24124,0.35911 -0.3497,0.42608 -0.84939,0.49731 -0.49969,0.0712 -0.9098,-0.26536 -0.32755,-0.26883 -0.41506,-0.58578 -0.0875,-0.31694 0.0134,-0.68426 0.0987,-0.36466 0.3716,-0.80031 0.27288,-0.43566 0.59643,-0.87875 l -0.016,-0.0131 q -0.24766,-0.20327 -0.50698,-0.0774 -0.26197,0.1237 -0.58545,0.51783 -0.19452,0.23701 -0.33005,0.57592 -0.13819,0.33672 -0.18909,0.49105 l -0.0721,0.0879 -0.721677,-0.59231 q 0.08464,-0.18458 0.311137,-0.56916 0.22602,-0.38943 0.50797,-0.73296 0.67099,-0.81755 1.22122,-0.97208 0.54976,-0.15939 1.08769,0.28211 l 2.03455,1.66982 -0.78027,0.9507 z m 4.28601,-4.57596 -0.7912,0.96401 -1.48331,-1.21739 q -0.18108,-0.14863 -0.3748,-0.27642 -0.19639,-0.12999 -0.31876,-0.15465 -0.14225,-0.0276 -0.27276,0.0391 -0.12832,0.064 -0.27913,0.24779 -0.1071,0.13049 -0.17596,0.30127 -0.0667,0.16812 -0.10242,0.40174 l 2.11977,1.73976 -0.78682,0.95869 -2.99058,-2.45446 0.78682,-0.95869 0.33022,0.27101 q 0.0101,-0.41957 0.0959,-0.74134 0.088,-0.32443 0.32405,-0.61204 0.39778,-0.48467 0.903,-0.52462 0.5074,-0.0426 1.0693,0.41855 z m 3.11015,-3.7895 -0.78683,0.95869 -0.31157,-0.25571 q -8.7e-4,0.41377 -0.082,0.70815 -0.0812,0.29439 -0.31285,0.57667 -0.44805,0.54592 -1.13764,0.52814 -0.68959,-0.0178 -1.40328,-0.60352 -0.38082,-0.31255 -0.58414,-0.66215 -0.2038,-0.35445 -0.25681,-0.71886 -0.0511,-0.345 0.0517,-0.69293 0.10016,-0.35011 0.31216,-0.60842 0.22075,-0.26897 0.41922,-0.39132 0.19799,-0.1272 0.43449,-0.23616 l -1.27293,-1.04473 0.78683,-0.95869 z m -1.61237,0.28115 -1.46732,-1.20428 q -0.12567,0.0662 -0.2361,0.16277 -0.11044,0.0966 -0.18694,0.18975 -0.31036,0.37815 -0.22853,0.76175 0.0792,0.38141 0.49726,0.72455 0.4394,0.36063 0.76371,0.37276 0.32165,0.01 0.59704,-0.3256 0.10709,-0.13048 0.17937,-0.31629 0.0696,-0.188 0.0815,-0.36541 z m 4.45537,-11.83087 3.08881,4.32228 -0.9289,1.13178 -3.1667,-1.40903 2.01487,2.81245 -0.92889,1.13178 -4.84168,-2.18653 0.87643,-1.06787 3.23012,1.63044 -2.13074,-2.96994 0.83709,-1.01994 3.30006,1.54522 -2.20505,-2.8794 z m 5.58017,-1.40126 -1.80096,2.19433 q 0.369,0.2672 0.75649,0.1752 0.38968,-0.0947 0.78309,-0.57402 0.24917,-0.30358 0.37384,-0.67814 0.12468,-0.37455 0.13503,-0.64238 l 0.0874,-0.10652 0.76961,0.63164 q -0.13616,0.43199 -0.31362,0.76768 -0.17746,0.33569 -0.46378,0.68455 -0.73874,0.9001 -1.53694,1.04723 -0.79819,0.14713 -1.5465,-0.46704 -0.74032,-0.6076 -0.80018,-1.41439 -0.0603,-0.81163 0.58881,-1.60255 0.59886,-0.72967 1.27064,-0.79337 0.66911,-0.0659 1.3615,0.50239 z m -1.34435,0.49219 q -0.30748,-0.23899 -0.57511,-0.22243 -0.26763,0.0166 -0.51243,0.31482 -0.2273,0.27696 -0.22994,0.5734 -0.003,0.29645 0.29679,0.57785 z m 4.24269,-4.46889 q 0.7057,0.57919 0.82914,1.33565 0.12563,0.75381 -0.35303,1.33701 -0.20545,0.25032 -0.41389,0.39569 -0.20844,0.14536 -0.44951,0.23274 l 0.11634,0.16234 -0.75404,0.91874 -4.14367,-3.40084 0.78683,-0.95869 1.46466,1.2021 q 0.006,-0.36529 0.0844,-0.68392 0.081,-0.32129 0.32794,-0.62221 0.46554,-0.56723 1.12699,-0.53689 0.6588,0.0282 1.37781,0.61828 z m -0.79223,1.00328 q -0.39945,-0.32785 -0.72662,-0.36907 -0.32717,-0.0412 -0.61349,0.30764 -0.11147,0.13581 -0.18689,0.31458 -0.0781,0.17659 -0.10794,0.37046 l 1.50194,1.2327 q 0.12253,-0.0733 0.21234,-0.15554 0.0898,-0.0823 0.19691,-0.21276 0.31254,-0.38082 0.24184,-0.75082 -0.0707,-0.37001 -0.51809,-0.73719 z m 5.82969,-6.54914 q 0.58587,0.48084 0.54466,1.28044 -0.0417,0.79476 -0.7411,1.64693 -0.40434,0.49266 -0.79118,0.79022 -0.38731,0.2927 -0.78273,0.50299 l -0.95071,-0.78028 0.0918,-0.11184 q 0.51308,-0.10927 0.97018,-0.38927 0.45929,-0.28266 0.75654,-0.64483 0.0765,-0.0932 0.1851,-0.25811 0.1086,-0.16491 0.15,-0.29137 0.0482,-0.15652 0.0375,-0.2901 -0.009,-0.13623 -0.14966,-0.25207 -0.13049,-0.1071 -0.31549,-0.0718 -0.18548,0.0305 -0.41093,0.20202 -0.23685,0.17998 -0.48757,0.39315 -0.2512,0.20832 -0.50233,0.36767 -0.57334,0.36733 -1.0317,0.36105 -0.45884,-0.0111 -0.87161,-0.34989 -0.55391,-0.45461 -0.49624,-1.23625 0.0572,-0.78649 0.69758,-1.56676 0.32129,-0.39146 0.71107,-0.70889 0.38929,-0.32228 0.73329,-0.50792 l 0.91342,0.74967 -0.0896,0.10919 q -0.38844,0.0823 -0.80259,0.32625 -0.41462,0.2391 -0.71186,0.60127 -0.10491,0.12783 -0.19118,0.27095 -0.0868,0.13828 -0.13498,0.29479 -0.0453,0.13664 -0.0239,0.27896 0.0187,0.14014 0.12255,0.22538 0.15712,0.12895 0.34069,0.079 0.18091,-0.0521 0.52335,-0.32813 0.22449,-0.18121 0.43102,-0.34597 0.20872,-0.16742 0.47343,-0.33791 0.52288,-0.33298 0.95823,-0.33668 0.43487,-0.009 0.84497,0.32804 z m 2.79256,-3.90754 q 0.73766,0.60542 0.80967,1.38653 0.0715,0.77627 -0.56667,1.55387 -0.6382,0.7776 -1.4157,0.8615 -0.77797,0.079 -1.51563,-0.52638 -0.74298,-0.60979 -0.81233,-1.38871 -0.0672,-0.78159 0.56667,-1.55387 0.64258,-0.78293 1.41836,-0.85931 0.77797,-0.079 1.51563,0.52637 z m -0.24123,1.7764 q -0.038,-0.18719 -0.16064,-0.3636 -0.1231,-0.18125 -0.40804,-0.41512 -0.26364,-0.21638 -0.48141,-0.31488 -0.21776,-0.0985 -0.39422,-0.10071 -0.17913,-0.004 -0.32275,0.0783 -0.14363,0.0827 -0.25728,0.22115 -0.11365,0.13848 -0.16598,0.27827 -0.0501,0.13712 -0.0192,0.32744 0.0317,0.17312 0.1691,0.37501 0.13956,0.19922 0.41385,0.42434 0.245,0.20108 0.46324,0.30443 0.21558,0.10116 0.39689,0.10289 0.1738,3e-5 0.3179,-0.0778 0.14629,-0.0805 0.27087,-0.23228 0.1071,-0.13049 0.16065,-0.28263 0.0531,-0.157 0.017,-0.32479 z m 3.08591,-2.19601 -0.78683,0.95869 -4.14367,-3.40084 0.78683,-0.95869 z m 3.18883,-3.88536 -0.78682,0.95869 -0.33022,-0.27102 q -0.0162,0.43241 -0.0911,0.74087 -0.0776,0.30627 -0.3289,0.61252 -0.40652,0.49532 -0.91222,0.53043 -0.5035,0.0324 -1.06008,-0.42436 l -1.94667,-1.5977 0.7912,-0.96401 1.48331,1.21739 q 0.22635,0.18578 0.38907,0.29705 0.16225,0.10641 0.30449,0.13402 0.14006,0.0303 0.26839,-0.0338 0.13051,-0.0667 0.28132,-0.25045 0.10053,-0.1225 0.17766,-0.30878 0.0771,-0.18629 0.1029,-0.39689 l -2.11977,-1.73976 0.78682,-0.95869 z m 2.28578,-2.83933 q -0.0868,0.18724 -0.20759,0.37782 -0.1181,0.19277 -0.32354,0.44309 -0.45899,0.55924 -0.91046,0.64775 -0.4493,0.0858 -0.99788,-0.36439 l -1.39809,-1.14746 -0.32347,0.39413 -0.64978,-0.53329 0.32347,-0.39413 -0.85483,-0.70159 0.78683,-0.95869 0.85483,0.70159 0.73656,-0.89744 0.64978,0.53329 -0.73656,0.89744 1.05988,0.86988 q 0.15712,0.12896 0.27648,0.22246 0.11936,0.0935 0.24535,0.13006 0.1238,0.0392 0.25623,-0.008 0.13194,-0.0521 0.28056,-0.23324 0.0612,-0.0746 0.1276,-0.22063 0.0686,-0.14872 0.0813,-0.21851 l 0.0656,-0.0799 z m 1.28336,-1.50939 -0.78683,0.95869 -2.99058,-2.45446 0.78683,-0.95869 z m -3.39481,-2.83079 -0.83054,1.01195 -0.72701,-0.59668 0.83054,-1.01195 z m 5.15308,-2.35793 q 0.73766,0.60542 0.80967,1.38653 0.0715,0.77626 -0.56667,1.55387 -0.63821,0.7776 -1.4157,0.86149 -0.77797,0.079 -1.51563,-0.52637 -0.74298,-0.60979 -0.81233,-1.38872 -0.0672,-0.78159 0.56667,-1.55386 0.64257,-0.78293 1.41836,-0.85932 0.77797,-0.079 1.51563,0.52638 z m -0.24123,1.7764 q -0.038,-0.18719 -0.16064,-0.3636 -0.1231,-0.18126 -0.40805,-0.41512 -0.26364,-0.21638 -0.4814,-0.31488 -0.21776,-0.0985 -0.39423,-0.10071 -0.17912,-0.004 -0.32274,0.0783 -0.14363,0.0827 -0.25728,0.22116 -0.11366,0.13848 -0.16598,0.27826 -0.0502,0.13712 -0.0192,0.32745 0.0317,0.17312 0.16911,0.375 0.13956,0.19922 0.41385,0.42434 0.245,0.20108 0.46324,0.30443 0.21558,0.10117 0.39689,0.1029 0.17379,2e-5 0.3179,-0.0778 0.14628,-0.0805 0.27087,-0.23229 0.10709,-0.13049 0.16065,-0.28263 0.0531,-0.15699 0.017,-0.32478 z m 4.76447,-4.24121 -0.7912,0.96401 -1.4833,-1.21739 q -0.18109,-0.14863 -0.37481,-0.27642 -0.19639,-0.12998 -0.31876,-0.15465 -0.14224,-0.0276 -0.27275,0.0391 -0.12833,0.064 -0.27914,0.24779 -0.10709,0.13049 -0.17595,0.30127 -0.0667,0.16812 -0.10242,0.40174 l 2.11977,1.73976 -0.78683,0.95869 -2.99058,-2.45446 0.78683,-0.95869 0.33021,0.27102 q 0.0101,-0.41958 0.0959,-0.74135 0.088,-0.32443 0.32405,-0.61204 0.39778,-0.48467 0.903,-0.52462 0.5074,-0.0426 1.0693,0.41855 z m 1.90858,-4.25867 q 0.46336,0.3803 0.40735,1.0296 -0.0587,0.64711 -0.65099,1.36879 -0.32784,0.39945 -0.66905,0.66314 -0.34122,0.26369 -0.59349,0.38645 l -0.78826,-0.64695 0.0721,-0.0879 q 0.1096,-0.0304 0.24735,-0.0733 0.13727,-0.0478 0.34858,-0.16406 0.18364,-0.0989 0.38409,-0.25078 0.19779,-0.1541 0.37483,-0.36981 0.23167,-0.28228 0.28189,-0.46836 0.0476,-0.18827 -0.0749,-0.28881 -0.10919,-0.0896 -0.22269,-0.0491 -0.11617,0.0384 -0.34503,0.2249 -0.11139,0.0869 -0.28883,0.24874 -0.17792,0.15705 -0.34026,0.27339 -0.44092,0.32002 -0.82635,0.33349 -0.3881,0.0113 -0.72364,-0.2641 -0.43141,-0.35408 -0.38195,-0.99538 0.049,-0.64616 0.63036,-1.35452 0.27539,-0.33554 0.59597,-0.58496 0.32011,-0.25427 0.53941,-0.36399 l 0.75629,0.62072 -0.0678,0.0826 q -0.32132,0.0928 -0.63698,0.29281 -0.31614,0.19513 -0.54563,0.47475 -0.19015,0.23168 -0.25738,0.44392 -0.065,0.20957 0.0521,0.30574 0.10652,0.0874 0.22145,0.0614 0.11494,-0.026 0.38943,-0.24641 0.1495,-0.12242 0.31649,-0.26615 0.16651,-0.14858 0.349,-0.28404 0.40889,-0.29728 0.77055,-0.30352 0.35901,-0.008 0.67591,0.25167 z"
       id="text1"
       style="font-weight:bold;font-size:7.05556px;line-height:0.9;font-family:Sans;-inkscape-font-specification:'Sans, Bold';letter-spacing:0px;white-space:pre;fill:#734b5e;stroke:#734b5e;stroke-width:0"
       inkscape:label="Text"
       transform="translate(5.8208336,-7.4083337)"
       aria-label="GIS and Web Solutions" />
    <path
       style="opacity:1;fill:#aa0039;fill-opacity:1;stroke:#df284a;stroke-width:0;stroke-linejoin:miter;stroke-dasharray:none;stroke-opacity:1;paint-order:normal"
       d="M 91.728376,180.11702 154.80749,103.25991"
       id="path74"
       sodipodi:nodetypes="cc"
       inkscape:label="Text Line Up" />
  </g>
</svg>
